<mxfile host="app.diagrams.net" modified="2024-04-19T13:13:22.951Z" agent="Mozilla/5.0 (Windows NT 10.0; Win64; x64) AppleWebKit/537.36 (KHTML, like Gecko) Chrome/123.0.0.0 Safari/537.36" etag="yPYx4JC7weerw_LwOmab" version="24.2.5" type="device">
  <diagram name="Page-1" id="uxT1nN4m3o9x9brB0odH">
    <mxGraphModel dx="2758" dy="1304" grid="1" gridSize="10" guides="1" tooltips="1" connect="1" arrows="1" fold="1" page="1" pageScale="1" pageWidth="850" pageHeight="1100" math="0" shadow="0">
      <root>
        <mxCell id="0" />
        <mxCell id="1" parent="0" />
        <mxCell id="OaYP0mEYPI0nywPGjNKW-2" value="Create User" style="rounded=1;whiteSpace=wrap;html=1;fontStyle=1;fontSize=16;" vertex="1" parent="1">
          <mxGeometry x="295" y="110" width="140" height="40" as="geometry" />
        </mxCell>
        <mxCell id="OaYP0mEYPI0nywPGjNKW-3" value="&lt;h2&gt;User&lt;/h2&gt;" style="rounded=0;whiteSpace=wrap;html=1;fontStyle=1" vertex="1" parent="1">
          <mxGeometry x="250" y="300" width="230" height="70" as="geometry" />
        </mxCell>
        <mxCell id="OaYP0mEYPI0nywPGjNKW-5" value="" style="endArrow=classic;html=1;rounded=0;entryX=0.446;entryY=-0.024;entryDx=0;entryDy=0;entryPerimeter=0;fontStyle=1;exitX=0.44;exitY=1.075;exitDx=0;exitDy=0;exitPerimeter=0;" edge="1" parent="1" source="OaYP0mEYPI0nywPGjNKW-2" target="OaYP0mEYPI0nywPGjNKW-3">
          <mxGeometry width="50" height="50" relative="1" as="geometry">
            <mxPoint x="350" y="160" as="sourcePoint" />
            <mxPoint x="352.04999999999995" y="290.01" as="targetPoint" />
          </mxGeometry>
        </mxCell>
        <mxCell id="OaYP0mEYPI0nywPGjNKW-6" value="Create User" style="rounded=1;whiteSpace=wrap;html=1;fontStyle=1;fontSize=16;" vertex="1" parent="1">
          <mxGeometry x="-40" y="307.5" width="150" height="55" as="geometry" />
        </mxCell>
        <mxCell id="OaYP0mEYPI0nywPGjNKW-7" value="" style="endArrow=classic;html=1;rounded=0;entryX=0;entryY=0.5;entryDx=0;entryDy=0;fontStyle=1" edge="1" parent="1" target="OaYP0mEYPI0nywPGjNKW-3">
          <mxGeometry width="50" height="50" relative="1" as="geometry">
            <mxPoint x="110" y="335" as="sourcePoint" />
            <mxPoint x="183" y="370" as="targetPoint" />
          </mxGeometry>
        </mxCell>
        <mxCell id="OaYP0mEYPI0nywPGjNKW-11" value="" style="endArrow=classic;html=1;rounded=0;exitX=1;exitY=0.5;exitDx=0;exitDy=0;fontStyle=1" edge="1" parent="1" source="OaYP0mEYPI0nywPGjNKW-3">
          <mxGeometry width="50" height="50" relative="1" as="geometry">
            <mxPoint x="700" y="310" as="sourcePoint" />
            <mxPoint x="882.0511568509615" y="335" as="targetPoint" />
          </mxGeometry>
        </mxCell>
        <mxCell id="OaYP0mEYPI0nywPGjNKW-12" value="&lt;font style=&quot;font-size: 13px;&quot;&gt;&lt;span style=&quot;font-size: 13px;&quot;&gt;/signup&lt;/span&gt;&lt;/font&gt;" style="text;html=1;align=center;verticalAlign=middle;resizable=0;points=[];autosize=1;strokeColor=none;fillColor=none;fontSize=13;fontStyle=1" vertex="1" parent="1">
          <mxGeometry x="385" y="200" width="70" height="30" as="geometry" />
        </mxCell>
        <mxCell id="OaYP0mEYPI0nywPGjNKW-13" value="&lt;font style=&quot;font-size: 16px;&quot;&gt;/login&lt;/font&gt;" style="text;html=1;align=center;verticalAlign=middle;resizable=0;points=[];autosize=1;strokeColor=none;fillColor=none;fontSize=12;fontStyle=1" vertex="1" parent="1">
          <mxGeometry x="145" y="290" width="60" height="30" as="geometry" />
        </mxCell>
        <mxCell id="OaYP0mEYPI0nywPGjNKW-14" value="/profile" style="text;html=1;align=center;verticalAlign=middle;resizable=0;points=[];autosize=1;strokeColor=none;fillColor=none;fontSize=13;fontStyle=1" vertex="1" parent="1">
          <mxGeometry x="695" y="280" width="60" height="30" as="geometry" />
        </mxCell>
        <mxCell id="OaYP0mEYPI0nywPGjNKW-15" value="Access is profile" style="rounded=1;whiteSpace=wrap;html=1;fontStyle=1;fontSize=16;" vertex="1" parent="1">
          <mxGeometry x="880" y="307.5" width="150" height="55" as="geometry" />
        </mxCell>
        <mxCell id="OaYP0mEYPI0nywPGjNKW-16" value="" style="endArrow=classic;html=1;rounded=0;" edge="1" parent="1">
          <mxGeometry width="50" height="50" relative="1" as="geometry">
            <mxPoint x="680" y="340" as="sourcePoint" />
            <mxPoint x="880" y="480" as="targetPoint" />
            <Array as="points">
              <mxPoint x="680" y="480" />
            </Array>
          </mxGeometry>
        </mxCell>
        <mxCell id="OaYP0mEYPI0nywPGjNKW-17" value="Access is profile" style="rounded=1;whiteSpace=wrap;html=1;fontStyle=1;fontSize=16;" vertex="1" parent="1">
          <mxGeometry x="880" y="450" width="150" height="55" as="geometry" />
        </mxCell>
        <mxCell id="OaYP0mEYPI0nywPGjNKW-18" value="/profile/password" style="text;html=1;align=center;verticalAlign=middle;resizable=0;points=[];autosize=1;strokeColor=none;fillColor=none;fontSize=13;fontStyle=1" vertex="1" parent="1">
          <mxGeometry x="720" y="430" width="120" height="30" as="geometry" />
        </mxCell>
        <mxCell id="OaYP0mEYPI0nywPGjNKW-20" value="" style="endArrow=classic;html=1;rounded=0;" edge="1" parent="1">
          <mxGeometry width="50" height="50" relative="1" as="geometry">
            <mxPoint x="350" y="370" as="sourcePoint" />
            <mxPoint x="690" y="750" as="targetPoint" />
            <Array as="points">
              <mxPoint x="350" y="750" />
            </Array>
          </mxGeometry>
        </mxCell>
        <mxCell id="OaYP0mEYPI0nywPGjNKW-21" value="&lt;font style=&quot;font-size: 18px;&quot;&gt;vote&lt;/font&gt;" style="rounded=0;whiteSpace=wrap;html=1;fontStyle=1" vertex="1" parent="1">
          <mxGeometry x="690" y="720" width="230" height="70" as="geometry" />
        </mxCell>
        <mxCell id="OaYP0mEYPI0nywPGjNKW-22" value="Role =&quot;vote&quot;" style="text;html=1;align=center;verticalAlign=middle;resizable=0;points=[];autosize=1;strokeColor=none;fillColor=none;fontSize=16;fontStyle=1" vertex="1" parent="1">
          <mxGeometry x="1180" y="760" width="110" height="30" as="geometry" />
        </mxCell>
        <mxCell id="OaYP0mEYPI0nywPGjNKW-25" value="" style="endArrow=none;html=1;rounded=0;exitX=1;exitY=0.5;exitDx=0;exitDy=0;" edge="1" parent="1" source="OaYP0mEYPI0nywPGjNKW-21">
          <mxGeometry width="50" height="50" relative="1" as="geometry">
            <mxPoint x="940" y="810" as="sourcePoint" />
            <mxPoint x="1100" y="755" as="targetPoint" />
          </mxGeometry>
        </mxCell>
        <mxCell id="OaYP0mEYPI0nywPGjNKW-27" value="" style="endArrow=none;html=1;rounded=0;" edge="1" parent="1">
          <mxGeometry width="50" height="50" relative="1" as="geometry">
            <mxPoint x="1100" y="980" as="sourcePoint" />
            <mxPoint x="1100" y="520" as="targetPoint" />
            <Array as="points">
              <mxPoint x="1100" y="760" />
            </Array>
          </mxGeometry>
        </mxCell>
        <mxCell id="OaYP0mEYPI0nywPGjNKW-29" value="" style="endArrow=classic;html=1;rounded=0;" edge="1" parent="1">
          <mxGeometry width="50" height="50" relative="1" as="geometry">
            <mxPoint x="1090" y="980" as="sourcePoint" />
            <mxPoint x="1330" y="980" as="targetPoint" />
            <Array as="points">
              <mxPoint x="1090" y="980" />
            </Array>
          </mxGeometry>
        </mxCell>
        <mxCell id="OaYP0mEYPI0nywPGjNKW-30" value="" style="endArrow=classic;html=1;rounded=0;" edge="1" parent="1">
          <mxGeometry width="50" height="50" relative="1" as="geometry">
            <mxPoint x="1100" y="520" as="sourcePoint" />
            <mxPoint x="1340" y="520" as="targetPoint" />
            <Array as="points">
              <mxPoint x="1100" y="520" />
            </Array>
          </mxGeometry>
        </mxCell>
        <mxCell id="OaYP0mEYPI0nywPGjNKW-32" value="" style="endArrow=classic;html=1;rounded=0;" edge="1" parent="1">
          <mxGeometry width="50" height="50" relative="1" as="geometry">
            <mxPoint x="1100" y="754.09" as="sourcePoint" />
            <mxPoint x="1340" y="754.09" as="targetPoint" />
            <Array as="points">
              <mxPoint x="1100" y="754.09" />
            </Array>
          </mxGeometry>
        </mxCell>
        <mxCell id="OaYP0mEYPI0nywPGjNKW-36" value="List of Electors" style="rounded=0;whiteSpace=wrap;html=1;fontSize=15;fontStyle=1" vertex="1" parent="1">
          <mxGeometry x="1340" y="480" width="240" height="70" as="geometry" />
        </mxCell>
        <mxCell id="OaYP0mEYPI0nywPGjNKW-37" value="List of Elecpts" style="rounded=0;whiteSpace=wrap;html=1;fontSize=15;fontStyle=1" vertex="1" parent="1">
          <mxGeometry x="1340" y="720" width="240" height="70" as="geometry" />
        </mxCell>
        <mxCell id="OaYP0mEYPI0nywPGjNKW-38" value="List of Electors" style="rounded=0;whiteSpace=wrap;html=1;fontSize=15;fontStyle=1" vertex="1" parent="1">
          <mxGeometry x="1330" y="940" width="240" height="70" as="geometry" />
        </mxCell>
        <mxCell id="OaYP0mEYPI0nywPGjNKW-39" value="GET /electors" style="text;html=1;align=center;verticalAlign=middle;resizable=0;points=[];autosize=1;strokeColor=none;fillColor=none;fontSize=16;fontStyle=1" vertex="1" parent="1">
          <mxGeometry x="1180" y="480" width="120" height="30" as="geometry" />
        </mxCell>
        <mxCell id="OaYP0mEYPI0nywPGjNKW-40" value="POST /vote/:electorId" style="text;html=1;align=center;verticalAlign=middle;resizable=0;points=[];autosize=1;strokeColor=none;fillColor=none;fontSize=16;fontStyle=1" vertex="1" parent="1">
          <mxGeometry x="1125" y="720" width="180" height="30" as="geometry" />
        </mxCell>
        <mxCell id="OaYP0mEYPI0nywPGjNKW-41" value="GET /electors/count" style="text;html=1;align=center;verticalAlign=middle;resizable=0;points=[];autosize=1;strokeColor=none;fillColor=none;fontSize=16;fontStyle=1" vertex="1" parent="1">
          <mxGeometry x="1145" y="950" width="160" height="30" as="geometry" />
        </mxCell>
        <mxCell id="OaYP0mEYPI0nywPGjNKW-42" value="No Role ❌" style="text;html=1;align=center;verticalAlign=middle;resizable=0;points=[];autosize=1;strokeColor=none;fillColor=none;fontSize=16;fontStyle=1" vertex="1" parent="1">
          <mxGeometry x="1180" y="535" width="110" height="30" as="geometry" />
        </mxCell>
        <mxCell id="OaYP0mEYPI0nywPGjNKW-43" value="No Role ❌" style="text;html=1;align=center;verticalAlign=middle;resizable=0;points=[];autosize=1;strokeColor=none;fillColor=none;fontSize=16;fontStyle=1" vertex="1" parent="1">
          <mxGeometry x="1160" y="1000" width="110" height="30" as="geometry" />
        </mxCell>
        <mxCell id="OaYP0mEYPI0nywPGjNKW-44" value="" style="endArrow=classic;html=1;rounded=0;" edge="1" parent="1">
          <mxGeometry width="50" height="50" relative="1" as="geometry">
            <mxPoint x="350" y="750" as="sourcePoint" />
            <mxPoint x="710" y="1320" as="targetPoint" />
            <Array as="points">
              <mxPoint x="360" y="1320" />
            </Array>
          </mxGeometry>
        </mxCell>
        <mxCell id="OaYP0mEYPI0nywPGjNKW-45" value="&lt;font style=&quot;font-size: 18px;&quot;&gt;vote&lt;/font&gt;" style="rounded=0;whiteSpace=wrap;html=1;fontStyle=1" vertex="1" parent="1">
          <mxGeometry x="710" y="1280" width="230" height="70" as="geometry" />
        </mxCell>
        <mxCell id="OaYP0mEYPI0nywPGjNKW-46" value="" style="endArrow=none;html=1;rounded=0;exitX=1;exitY=0.5;exitDx=0;exitDy=0;" edge="1" source="OaYP0mEYPI0nywPGjNKW-45" parent="1">
          <mxGeometry width="50" height="50" relative="1" as="geometry">
            <mxPoint x="945" y="1380" as="sourcePoint" />
            <mxPoint x="1110" y="1310" as="targetPoint" />
          </mxGeometry>
        </mxCell>
        <mxCell id="OaYP0mEYPI0nywPGjNKW-47" value="" style="endArrow=none;html=1;rounded=0;" edge="1" parent="1">
          <mxGeometry width="50" height="50" relative="1" as="geometry">
            <mxPoint x="1105" y="1550" as="sourcePoint" />
            <mxPoint x="1105" y="1090" as="targetPoint" />
            <Array as="points">
              <mxPoint x="1105" y="1330" />
            </Array>
          </mxGeometry>
        </mxCell>
        <mxCell id="OaYP0mEYPI0nywPGjNKW-48" value="" style="endArrow=classic;html=1;rounded=0;" edge="1" parent="1">
          <mxGeometry width="50" height="50" relative="1" as="geometry">
            <mxPoint x="1100" y="1550" as="sourcePoint" />
            <mxPoint x="1340" y="1550" as="targetPoint" />
            <Array as="points">
              <mxPoint x="1100" y="1550" />
            </Array>
          </mxGeometry>
        </mxCell>
        <mxCell id="OaYP0mEYPI0nywPGjNKW-49" value="POST /electors" style="text;html=1;align=center;verticalAlign=middle;resizable=0;points=[];autosize=1;strokeColor=none;fillColor=none;fontSize=16;fontStyle=1" vertex="1" parent="1">
          <mxGeometry x="1180" y="1050" width="130" height="30" as="geometry" />
        </mxCell>
        <mxCell id="OaYP0mEYPI0nywPGjNKW-51" value="create new elector" style="rounded=0;whiteSpace=wrap;html=1;fontSize=15;fontStyle=1" vertex="1" parent="1">
          <mxGeometry x="1345" y="1050" width="240" height="70" as="geometry" />
        </mxCell>
        <mxCell id="OaYP0mEYPI0nywPGjNKW-52" value="update exixting elector" style="rounded=0;whiteSpace=wrap;html=1;fontSize=15;fontStyle=1" vertex="1" parent="1">
          <mxGeometry x="1345" y="1290" width="240" height="70" as="geometry" />
        </mxCell>
        <mxCell id="OaYP0mEYPI0nywPGjNKW-53" value="PUT /elector/:electorId" style="text;html=1;align=center;verticalAlign=middle;resizable=0;points=[];autosize=1;strokeColor=none;fillColor=none;fontSize=16;fontStyle=1" vertex="1" parent="1">
          <mxGeometry x="1130" y="1290" width="180" height="30" as="geometry" />
        </mxCell>
        <mxCell id="OaYP0mEYPI0nywPGjNKW-55" value="delete a elector" style="rounded=0;whiteSpace=wrap;html=1;fontSize=15;fontStyle=1" vertex="1" parent="1">
          <mxGeometry x="1335" y="1510" width="240" height="70" as="geometry" />
        </mxCell>
        <mxCell id="OaYP0mEYPI0nywPGjNKW-56" value="No Role ❌" style="text;html=1;align=center;verticalAlign=middle;resizable=0;points=[];autosize=1;strokeColor=none;fillColor=none;fontSize=16;fontStyle=1" vertex="1" parent="1">
          <mxGeometry x="1165" y="1570" width="110" height="30" as="geometry" />
        </mxCell>
        <mxCell id="OaYP0mEYPI0nywPGjNKW-57" value="DELETE /electors/:electorId" style="text;html=1;align=center;verticalAlign=middle;resizable=0;points=[];autosize=1;strokeColor=none;fillColor=none;fontSize=16;fontStyle=1" vertex="1" parent="1">
          <mxGeometry x="1120" y="1520" width="220" height="30" as="geometry" />
        </mxCell>
        <mxCell id="OaYP0mEYPI0nywPGjNKW-72" value="" style="endArrow=classic;html=1;rounded=0;" edge="1" parent="1">
          <mxGeometry width="50" height="50" relative="1" as="geometry">
            <mxPoint x="840" y="1170" as="sourcePoint" />
            <mxPoint x="1050" y="1170" as="targetPoint" />
          </mxGeometry>
        </mxCell>
        <mxCell id="OaYP0mEYPI0nywPGjNKW-73" value="" style="endArrow=classic;html=1;rounded=0;" edge="1" parent="1">
          <mxGeometry width="50" height="50" relative="1" as="geometry">
            <mxPoint x="1105" y="1090" as="sourcePoint" />
            <mxPoint x="1345" y="1090" as="targetPoint" />
            <Array as="points">
              <mxPoint x="1105" y="1090" />
            </Array>
          </mxGeometry>
        </mxCell>
        <mxCell id="OaYP0mEYPI0nywPGjNKW-75" value="" style="endArrow=classic;html=1;rounded=0;" edge="1" parent="1">
          <mxGeometry width="50" height="50" relative="1" as="geometry">
            <mxPoint x="1110" y="1314" as="sourcePoint" />
            <mxPoint x="1350" y="1314" as="targetPoint" />
            <Array as="points">
              <mxPoint x="1110" y="1314" />
            </Array>
          </mxGeometry>
        </mxCell>
        <mxCell id="OaYP0mEYPI0nywPGjNKW-76" value="Role =&quot;Admin&quot;" style="text;html=1;align=center;verticalAlign=middle;resizable=0;points=[];autosize=1;strokeColor=none;fillColor=none;fontSize=16;fontStyle=1" vertex="1" parent="1">
          <mxGeometry x="490" y="1270" width="130" height="30" as="geometry" />
        </mxCell>
      </root>
    </mxGraphModel>
  </diagram>
</mxfile>
